<svg width="107" height="60" viewBox="0 0 107 60" fill="none" xmlns="http://www.w3.org/2000/svg">
<path d="M40.7625 54.3935C40.7625 55.3386 40.5452 56.0988 40.1108 56.6743C39.6763 57.2459 39.0932 57.5317 38.3615 57.5317C37.5803 57.5317 36.9762 57.2554 36.5494 56.7029L36.4979 57.4174H35.5261V48.6372H36.5837V51.9126C37.0105 51.3829 37.5993 51.1181 38.3501 51.1181C39.1009 51.1181 39.6897 51.402 40.1165 51.9698C40.5471 52.5376 40.7625 53.315 40.7625 54.302V54.3935ZM39.7049 54.2734C39.7049 53.5532 39.5658 52.9968 39.2876 52.6043C39.0094 52.2118 38.6092 52.0155 38.0871 52.0155C37.3897 52.0155 36.8886 52.3394 36.5837 52.9873V55.6625C36.9076 56.3103 37.4126 56.6343 38.0986 56.6343C38.6054 56.6343 38.9999 56.438 39.2819 56.0455C39.5639 55.653 39.7049 55.0623 39.7049 54.2734Z" fill="#627282"/>
<path d="M44.0552 55.8683L45.4958 51.2324H46.6276L44.1409 58.372C43.756 59.4009 43.1444 59.9154 42.3059 59.9154L42.1059 59.8983L41.7114 59.8239V58.9665L41.9972 58.9894C42.3555 58.9894 42.6337 58.917 42.8319 58.7721C43.0338 58.6273 43.1996 58.3625 43.3292 57.9776L43.5636 57.3488L41.357 51.2324H42.5117L44.0552 55.8683Z" fill="#627282"/>
<path d="M52.4013 49.0945L54.8023 55.4739L57.1975 49.0945H59.0668V57.4174H57.6263V54.6736L57.7692 51.0037L55.3111 57.4174H54.2764L51.824 51.0095L51.9669 54.6736V57.4174H50.5263V49.0945H52.4013Z" fill="#627282"/>
<path d="M61.8734 57.4174H60.4843V51.2324H61.8734V57.4174ZM60.3985 49.6261C60.3985 49.4127 60.4652 49.2355 60.5986 49.0945C60.7358 48.9535 60.9302 48.883 61.1817 48.883C61.4332 48.883 61.6276 48.9535 61.7648 49.0945C61.902 49.2355 61.9706 49.4127 61.9706 49.6261C61.9706 49.8357 61.902 50.011 61.7648 50.152C61.6276 50.2892 61.4332 50.3578 61.1817 50.3578C60.9302 50.3578 60.7358 50.2892 60.5986 50.152C60.4652 50.011 60.3985 49.8357 60.3985 49.6261Z" fill="#627282"/>
<path d="M62.8793 54.2677C62.8793 53.6618 62.9993 53.1169 63.2394 52.6329C63.4795 52.1451 63.8168 51.7716 64.2512 51.5125C64.6857 51.2495 65.1849 51.1181 65.749 51.1181C66.5836 51.1181 67.26 51.3867 67.7783 51.9241C68.3005 52.4614 68.5825 53.174 68.6244 54.0619L68.6301 54.3878C68.6301 54.9975 68.512 55.5425 68.2757 56.0226C68.0432 56.5028 67.7078 56.8743 67.2696 57.1373C66.8351 57.4002 66.3321 57.5317 65.7604 57.5317C64.8877 57.5317 64.1884 57.2421 63.6624 56.6628C63.1403 56.0798 62.8793 55.3043 62.8793 54.3363V54.2677ZM64.2684 54.3878C64.2684 55.0242 64.3999 55.5234 64.6628 55.8854C64.9258 56.2437 65.2916 56.4228 65.7604 56.4228C66.2292 56.4228 66.5931 56.2398 66.8523 55.874C67.1152 55.5082 67.2467 54.9727 67.2467 54.2677C67.2467 53.6428 67.1114 53.1473 66.8408 52.7815C66.5741 52.4157 66.2101 52.2327 65.749 52.2327C65.2955 52.2327 64.9353 52.4138 64.6685 52.7758C64.4018 53.134 64.2684 53.6713 64.2684 54.3878Z" fill="#627282"/>
<path d="M69.6874 57.4174V49.0945H72.1455C72.8811 49.0945 73.5327 49.2584 74.1006 49.5861C74.6722 49.9138 75.1143 50.3788 75.4268 50.9809C75.7393 51.583 75.8956 52.2728 75.8956 53.0502V53.4675C75.8956 54.2563 75.7374 54.9499 75.4211 55.5482C75.1086 56.1465 74.6608 56.6076 74.0777 56.9315C73.4984 57.2554 72.8334 57.4174 72.0826 57.4174H69.6874ZM71.1337 50.2606V56.2627H72.0769C72.8353 56.2627 73.4165 56.0264 73.8205 55.5539C74.2283 55.0775 74.436 54.3954 74.4436 53.5075V53.0444C74.4436 52.1413 74.2473 51.4515 73.8548 50.9752C73.4622 50.4988 72.8925 50.2606 72.1455 50.2606H71.1337Z" fill="#627282"/>
<path d="M76.8158 54.2677C76.8158 53.6618 76.9359 53.1169 77.176 52.6329C77.4161 52.1451 77.7533 51.7716 78.1878 51.5125C78.6222 51.2495 79.1215 51.1181 79.6855 51.1181C80.5201 51.1181 81.1966 51.3867 81.7149 51.9241C82.237 52.4614 82.519 53.174 82.5609 54.0619L82.5667 54.3878C82.5667 54.9975 82.4485 55.5425 82.2122 56.0226C81.9798 56.5028 81.6444 56.8743 81.2061 57.1373C80.7717 57.4002 80.2686 57.5317 79.697 57.5317C78.8242 57.5317 78.1249 57.2421 77.599 56.6628C77.0769 56.0798 76.8158 55.3043 76.8158 54.3363V54.2677ZM78.2049 54.3878C78.2049 55.0242 78.3364 55.5234 78.5994 55.8854C78.8623 56.2437 79.2282 56.4228 79.697 56.4228C80.1657 56.4228 80.5297 56.2398 80.7888 55.874C81.0518 55.5082 81.1833 54.9727 81.1833 54.2677C81.1833 53.6428 81.048 53.1473 80.7774 52.7815C80.5106 52.4157 80.1467 52.2327 79.6855 52.2327C79.232 52.2327 78.8719 52.4138 78.6051 52.7758C78.3383 53.134 78.2049 53.6713 78.2049 54.3878Z" fill="#627282"/>
<path d="M85.2303 49.729V51.2324H86.3222V52.2613H85.2303V55.7139C85.2303 55.9502 85.2761 56.1217 85.3675 56.2284C85.4628 56.3313 85.6305 56.3827 85.8706 56.3827C86.0306 56.3827 86.1926 56.3637 86.3565 56.3256V57.4002C86.0402 57.4879 85.7353 57.5317 85.4418 57.5317C84.3747 57.5317 83.8412 56.9429 83.8412 55.7654V52.2613H82.8237V51.2324H83.8412V49.729H85.2303Z" fill="#627282"/>
<path d="M88.6255 49.729V51.2324H89.7173V52.2613H88.6255V55.7139C88.6255 55.9502 88.6712 56.1217 88.7626 56.2284C88.8579 56.3313 89.0256 56.3827 89.2657 56.3827C89.4258 56.3827 89.5877 56.3637 89.7516 56.3256V57.4002C89.4353 57.4879 89.1304 57.5317 88.837 57.5317C87.7699 57.5317 87.2363 56.9429 87.2363 55.7654V52.2613H86.2188V51.2324H87.2363V49.729H88.6255Z" fill="#627282"/>
<path d="M90.3518 54.2677C90.3518 53.6618 90.4719 53.1169 90.712 52.6329C90.9521 52.1451 91.2894 51.7716 91.7238 51.5125C92.1583 51.2495 92.6575 51.1181 93.2215 51.1181C94.0562 51.1181 94.7326 51.3867 95.2509 51.9241C95.773 52.4614 96.055 53.174 96.097 54.0619L96.1027 54.3878C96.1027 54.9975 95.9845 55.5425 95.7483 56.0226C95.5158 56.5028 95.1804 56.8743 94.7421 57.1373C94.3077 57.4002 93.8046 57.5317 93.233 57.5317C92.3603 57.5317 91.6609 57.2421 91.135 56.6628C90.6129 56.0798 90.3518 55.3043 90.3518 54.3363V54.2677ZM91.741 54.3878C91.741 55.0242 91.8724 55.5234 92.1354 55.8854C92.3984 56.2437 92.7642 56.4228 93.233 56.4228C93.7017 56.4228 94.0657 56.2398 94.3248 55.874C94.5878 55.5082 94.7193 54.9727 94.7193 54.2677C94.7193 53.6428 94.584 53.1473 94.3134 52.7815C94.0466 52.4157 93.6827 52.2327 93.2215 52.2327C92.768 52.2327 92.4079 52.4138 92.1411 52.7758C91.8744 53.134 91.741 53.6713 91.741 54.3878Z" fill="#627282"/>
<path d="M100.264 52.5014C100.081 52.4709 99.8925 52.4557 99.6981 52.4557C99.0617 52.4557 98.633 52.6996 98.4119 53.1874V57.4174H97.0228V51.2324H98.349L98.3833 51.9241C98.7187 51.3867 99.1837 51.1181 99.7782 51.1181C99.9763 51.1181 100.14 51.1447 100.27 51.1981L100.264 52.5014Z" fill="#627282"/>
<path d="M103.625 57.5317C102.745 57.5317 102.03 57.2554 101.482 56.7029C100.937 56.1465 100.664 55.4072 100.664 54.4849V54.3135C100.664 53.6961 100.782 53.1454 101.019 52.6615C101.259 52.1737 101.594 51.7945 102.025 51.5239C102.455 51.2534 102.935 51.1181 103.465 51.1181C104.307 51.1181 104.957 51.3867 105.415 51.9241C105.876 52.4614 106.106 53.2217 106.106 54.2049V54.765H102.065C102.107 55.2757 102.276 55.6796 102.573 55.9769C102.875 56.2741 103.252 56.4228 103.705 56.4228C104.342 56.4228 104.86 56.1655 105.26 55.6511L106.009 56.3656C105.761 56.7353 105.43 57.023 105.014 57.2288C104.603 57.4307 104.14 57.5317 103.625 57.5317ZM103.459 52.2327C103.078 52.2327 102.77 52.3661 102.533 52.6329C102.301 52.8996 102.152 53.2712 102.088 53.7475H104.734V53.6447C104.704 53.1797 104.58 52.8291 104.363 52.5929C104.145 52.3528 103.844 52.2327 103.459 52.2327Z" fill="#627282"/>
<path fill-rule="evenodd" clip-rule="evenodd" d="M13.1547 25.0103C11.828 24.1916 10.1169 23.9097 8.56038 23.9097C6.2626 23.9097 4.05817 24.7941 2.42749 26.6595C0.809164 28.5249 0 31.1192 0 34.4423C0 37.9631 0.802987 40.7377 2.40896 42.2695C4.02729 43.789 5.92105 44.5488 8.30095 44.5488C10.2632 44.5488 11.6043 44.0535 12.5432 43.5593C13.482 43.0652 14.3092 42.4059 15 41.5037C15 44.3796 14.7927 45.9112 14.3233 46.9736C13.5327 48.7772 11.839 49.6929 9.2818 49.6929C7.66347 49.6929 6.47752 49.3223 5.72395 48.5811C5.24215 48.0993 4.92096 47.4137 4.76036 46.5242H1.36928C1.54223 48.5626 2.35757 50.0573 3.81531 51.0086C5.27304 51.9722 7.05455 52.4435 9.19173 52.4435C13.0337 52.4435 15.6625 51.1074 17.0461 48.4143C17.7873 46.9566 18.1579 44.9676 18.1579 42.4475V24.3608H15V26.2217V26.7979C14.4079 26.0243 13.9022 25.4716 13.1547 25.0103ZM13.5623 28.5867C14.5753 29.7726 15.0818 31.5948 15.0818 34.0532C15.0818 35.6839 14.8101 37.3589 14.2665 38.582C13.2906 40.7438 11.0867 41.8248 8.69009 41.8248C7.15824 41.8248 5.69503 41.2442 4.78086 40.0829C3.87905 38.9093 3.42814 36.9563 3.42814 34.7203C3.42814 32.8178 3.6362 31.2716 4.11377 30.1062C5.04699 27.8288 6.82469 26.856 9.17188 26.856C10.7408 26.856 12.5493 27.4007 13.5623 28.5867ZM40.3652 39.6938C39.3399 40.9909 38.0489 41.6395 36.4923 41.6395C34.1946 41.6395 32.6133 40.6141 31.7485 38.5634C31.2915 37.4887 31.0629 36.3633 31.0629 34.8314C31.0629 32.929 31.2915 31.538 31.7485 30.3027C32.6009 27.9926 34.1822 26.8375 36.4923 26.8375C38.7901 26.8375 40.3714 27.7528 41.2361 29.9394C41.6932 31.0759 41.9287 32.4348 41.9287 34.0161C41.9287 36.6104 41.4029 38.3843 40.3652 39.6938ZM31.015 24.3608H27.8571V51.9924H31.015V41.5037C31.5789 42.4059 32.5824 43.196 33.1754 43.5667C34.1884 44.2214 35.4423 44.5488 36.9371 44.5488C38.8395 44.5488 40.5073 43.962 41.9403 42.7884C44.201 40.9353 45.3383 38.0249 45.3383 33.7011C45.3383 30.5015 44.5469 28.0431 42.978 26.326C41.4091 24.5964 39.5005 23.9097 37.2521 23.9097C35.7326 23.9097 34.4108 24.2803 33.2866 25.0215C32.4959 25.5156 31.6353 26.2217 31.015 27.1803V24.3608ZM56.6165 23.9097C53.8534 23.9097 51.5697 24.8875 49.8981 26.7879C48.2616 28.6483 47.3684 31.1447 47.3684 34.2291H47.369L47.3684 34.2294C47.3684 37.3138 48.2616 39.8101 49.8981 41.6705C51.5697 43.5709 53.8534 44.5488 56.6165 44.5488C59.3797 44.5488 61.6634 43.5709 63.335 41.6705C64.9715 39.8101 65.8647 37.3138 65.8647 34.2294L65.8641 34.2291H65.8647C65.8647 31.1447 64.9715 28.6483 63.335 26.7879C61.6634 24.8875 59.3797 23.9097 56.6165 23.9097ZM50.7872 34.2294L50.7865 34.2291H50.7872C50.7872 32.2103 51.2822 30.4548 52.1713 29.0007C53.0954 27.4895 54.5865 26.7339 56.6165 26.7339C58.6466 26.7339 60.1377 27.4895 61.0618 29.0007C61.9509 30.4548 62.4459 32.2103 62.4459 34.2291H62.4464L62.4459 34.2294C62.4459 36.2481 61.9509 38.0036 61.0618 39.4577C60.1377 40.9689 58.6466 41.7245 56.6165 41.7245C54.5865 41.7245 53.0954 40.9689 52.1713 39.4577C51.2822 38.0036 50.7872 36.2481 50.7872 34.2294ZM21.3158 24.3608H24.6992V44.0976H21.3158V24.3608Z" fill="#3D83DF"/>
<path d="M24.8021 18.9476C24.8021 19.947 23.997 20.7521 22.9976 20.7521C21.9982 20.7521 21.1931 19.947 21.1931 18.9476C21.1931 17.9482 22.0051 17.1431 22.9976 17.1431C23.9901 17.1431 24.8021 17.9482 24.8021 18.9476Z" fill="#3D83DF"/>
<path opacity="0.4" d="M24.7206 1.80451C24.7206 2.80393 23.9086 3.60902 22.9161 3.60902C21.9167 3.60902 21.1116 2.79699 21.1116 1.80451C21.1116 0.80509 21.9167 0 22.9161 0C23.9086 0 24.7206 0.81203 24.7206 1.80451Z" fill="#3D83DF"/>
<path opacity="0.7" d="M33.3834 10.3543C33.3834 11.3537 32.5714 12.1588 31.5789 12.1588C30.5795 12.1588 29.7744 11.3468 29.7744 10.3543C29.7744 9.36183 30.5864 8.5498 31.5789 8.5498C32.5714 8.5498 33.3834 9.35489 33.3834 10.3543Z" fill="#3D83DF"/>
<path opacity="0.15" d="M16.2406 10.3475C16.2406 11.3469 15.4301 12.152 14.4326 12.152C13.4351 12.152 12.6316 11.3469 12.6316 10.3475C12.6316 9.34809 13.4421 8.54301 14.4326 8.54301C15.4301 8.53607 16.2406 9.34809 16.2406 10.3475Z" fill="#3D83DF"/>
<path opacity="0.1" d="M17.4174 14.6575C17.4174 15.657 16.6053 16.4621 15.6129 16.4621C14.6134 16.4621 13.8083 15.65 13.8083 14.6575C13.8083 13.6651 14.6204 12.853 15.6129 12.853C16.6053 12.853 17.4174 13.6581 17.4174 14.6575Z" fill="#3D83DF"/>
<path opacity="0.2" d="M17.4037 6.10578C17.4037 7.1052 16.5917 7.91029 15.5992 7.91029C14.5998 7.91029 13.7947 7.1052 13.7947 6.10578C13.7947 5.10636 14.6067 4.30127 15.5992 4.30127C16.5986 4.30127 17.4037 5.10636 17.4037 6.10578Z" fill="#3D83DF"/>
<path opacity="0.8" d="M32.1935 14.6238C32.1935 15.6233 31.3884 16.4284 30.389 16.4284C29.3896 16.4284 28.5845 15.6163 28.5845 14.6238C28.5845 13.6314 29.3896 12.8193 30.389 12.8193C31.3884 12.8193 32.1935 13.6314 32.1935 14.6238Z" fill="#3D83DF"/>
<path opacity="0.6" d="M32.2003 6.07506C32.2003 7.07257 31.3883 7.87611 30.3958 7.87611C29.3964 7.87611 28.5913 7.07257 28.5913 6.07506C28.5913 5.07756 29.4033 4.26709 30.3958 4.26709C31.3883 4.26709 32.2003 5.07756 32.2003 6.07506Z" fill="#3D83DF"/>
<path opacity="0.05" d="M20.5192 17.7596C20.5192 18.759 19.7071 19.5641 18.7147 19.5641C17.7152 19.5641 16.9102 18.7521 16.9102 17.7596C16.9102 16.7671 17.7222 15.9551 18.7147 15.9551C19.7071 15.9482 20.5192 16.7602 20.5192 17.7596Z" fill="#3D83DF"/>
<path opacity="0.3" d="M20.526 2.97687C20.526 3.9763 19.7155 4.78139 18.718 4.78139C17.7205 4.78139 16.917 3.96936 16.917 2.97687C16.917 1.97745 17.7275 1.17236 18.718 1.17236C19.7225 1.17236 20.526 1.97745 20.526 2.97687Z" fill="#3D83DF"/>
<path opacity="0.9" d="M29.0714 17.7596C29.0714 18.759 28.2663 19.5641 27.2669 19.5641C26.2675 19.5641 25.4624 18.7521 25.4624 17.7596C25.4624 16.7602 26.2675 15.9551 27.2669 15.9551C28.2663 15.9551 29.0714 16.7602 29.0714 17.7596Z" fill="#3D83DF"/>
<path opacity="0.5" d="M29.0849 2.96955C29.0849 3.96897 28.2798 4.77406 27.2803 4.77406C26.2809 4.77406 25.4758 3.96203 25.4758 2.96955C25.4758 1.97013 26.2809 1.16504 27.2803 1.16504C28.2798 1.16504 29.0849 1.97013 29.0849 2.96955Z" fill="#3D83DF"/>
</svg>
